<svg xmlns="http://www.w3.org/2000/svg" viewBox="0 0 512 512" role="img" aria-label="방과후 아빠 유치원">
  <defs>
    <linearGradient id="g" x1="0" y1="0" x2="1" y2="1">
      <stop offset="0" stop-color="#ea580c"/><stop offset="1" stop-color="#c2410c"/>
    </linearGradient>
  </defs>
  <rect width="512" height="512" rx="112" fill="url(#g)"/>
  <path d="M256 112c-62 0-112 46-112 104v12h-8c-16 0-28 13-28 29v92c0 30 25 55 56 55h184c31 0 56-25 56-55v-92c0-16-12-29-28-29h-8v-12c0-58-50-104-112-104z" fill="#fff8f2"/>
  <path d="M192 228c0-36 29-64 64-64s64 28 64 64" fill="none" stroke="#c2410c" stroke-width="20" stroke-linecap="round"/>
  <rect x="212" y="286" width="88" height="72" rx="16" fill="#0e7490"/>
  <circle cx="256" cy="322" r="13" fill="#fff8f2"/>
</svg>
